<?xml version="1.0" encoding="UTF-8" standalone="no"?>
<!-- Created with Inkscape (http://www.inkscape.org/) -->

<svg
   width="200"
   height="200"
   viewBox="0 0 52.916665 52.916666"
   version="1.1"
   id="svg1"
   inkscape:version="1.3.2 (091e20ef0f, 2023-11-25)"
   sodipodi:docname="icon.svg"
   inkscape:export-filename="icon_260.png"
   inkscape:export-xdpi="124.8"
   inkscape:export-ydpi="124.8"
   xmlns:inkscape="http://www.inkscape.org/namespaces/inkscape"
   xmlns:sodipodi="http://sodipodi.sourceforge.net/DTD/sodipodi-0.dtd"
   xmlns="http://www.w3.org/2000/svg"
   xmlns:svg="http://www.w3.org/2000/svg">
  <sodipodi:namedview
     id="namedview1"
     pagecolor="#505050"
     bordercolor="#ffffff"
     borderopacity="1"
     inkscape:showpageshadow="0"
     inkscape:pageopacity="0"
     inkscape:pagecheckerboard="1"
     inkscape:deskcolor="#505050"
     inkscape:document-units="mm"
     inkscape:zoom="2.9682621"
     inkscape:cx="85.403508"
     inkscape:cy="93.15215"
     inkscape:window-width="1910"
     inkscape:window-height="1026"
     inkscape:window-x="0"
     inkscape:window-y="0"
     inkscape:window-maximized="0"
     inkscape:current-layer="layer1"
     inkscape:export-bgcolor="#ffffff00" />
  <defs
     id="defs1" />
  <g
     inkscape:label="Layer 1"
     inkscape:groupmode="layer"
     id="layer1">
    <rect
       style="fill:#008080;stroke-width:3.19394"
       id="rect5"
       width="50.724766"
       height="52.029827"
       x="1.0959505"
       y="0.44341978"
       ry="0"
       rx="6.0016589" />
    <rect
       style="fill:#008080;stroke-width:3.19394"
       id="rect7"
       width="50.724766"
       height="52.029827"
       x="1.0959505"
       y="0.44341978"
       ry="0"
       rx="6.0016589" />
    <rect
       style="fill:#008080;stroke-width:3.19394"
       id="rect9"
       width="50.724766"
       height="52.029827"
       x="1.0959505"
       y="0.44341978"
       ry="0"
       rx="1.4747998" />
    <path
       style="font-size:49.8459px;font-family:NanumBarunGothic;-inkscape-font-specification:NanumBarunGothic;fill:#ffffff;fill-opacity:1;stroke:none;stroke-width:1.1;stroke-dasharray:none;stroke-opacity:1"
       d="M 6.2956697,10.248056 V 7.4566854 H 24.53927 c 0,-0.8639956 -0.01662,-1.7279912 -0.04985,-2.5919868 C 24.45619,4.0007029 24.323271,3.2197838 24.090653,2.5219412 h 4.635669 c -0.166153,0.7643038 -0.265844,1.5618382 -0.299075,2.3926033 -0.03323,0.830765 -0.04985,1.6781453 -0.04985,2.5421409 h 18.2436 v 2.7913706 z m 8.1248823,12.810396 v -9.470721 h 24.424492 v 9.470721 z m 30.113654,21.354765 c -0.01166,1.495332 -0.282461,2.72491 -0.847381,3.688597 -0.53169,0.996918 -1.329224,1.628299 -2.392603,1.894144 -0.697843,0.166153 -1.395686,0.282461 -2.093528,0.348922 -0.664612,0.06646 -1.412301,0.06646 -2.243065,0 l -1.246148,-3.588905 c 0.664612,0.09969 1.262762,0.166152 1.794452,0.199383 0.53169,0.03323 0.996918,0.04985 1.395686,0.04985 0.498458,0 0.88061,-0.08308 1.146455,-0.249229 0.265845,-0.132923 0.465229,-0.348922 0.598151,-0.647997 0.132922,-0.299075 0.199384,-0.697843 0.199384,-1.196302 0.03323,-0.465228 0.0428,-1.046799 0.04985,-1.744606 L 41.038268,29.03996 H 12.127641 V 47.084177 H 8.5387353 V 26.099052 H 44.677015 Z M 31.467851,43.744501 V 42.099587 H 20.601444 v 2.093528 H 17.112231 V 32.180252 H 35.056756 V 43.744501 Z M 35.206293,16.329256 H 18.009457 v 3.937826 H 35.206293 Z M 31.517697,34.822085 H 20.601444 v 4.535977 h 10.916253 z"
       id="text5"
       aria-label="高"
       sodipodi:nodetypes="ccccccscccccccccscccccsscscsccccccsccccccccccccccccccc" />
  </g>
</svg>
